<svg width="329" height="410" viewBox="0 0 329 410" fill="none" xmlns="http://www.w3.org/2000/svg">
<path d="M270.58 37.4523C263.771 30.6423 255.688 25.2403 246.792 21.5547C237.895 17.8691 228.36 15.9721 218.73 15.9721C209.101 15.9721 199.566 17.8691 190.669 21.5547C181.773 25.2403 173.69 30.6423 166.881 37.4523C162.267 42.0642 158.291 47.2733 155.059 52.9406L90.4018 35.2985C90.6015 20.712 86.4454 6.39747 78.465 -5.81403C70.4846 -18.0255 59.0429 -27.5788 45.6032 -33.2518C32.1636 -38.9249 17.3372 -40.4598 3.02042 -37.6601C-11.2963 -34.8605 -24.4525 -27.8537 -34.7651 -17.5359C-45.7764 -6.49864 -52.9902 7.75594 -55.3627 23.1651C-57.7352 38.5742 -55.1434 54.3385 -47.9623 68.1769L-125.725 138.172C-139.833 128.847 -156.728 124.678 -173.555 126.369C-190.383 128.059 -206.11 135.506 -218.082 147.452C-231.468 160.736 -239.22 178.667 -239.727 197.519C-240.235 216.371 -233.458 234.693 -220.807 248.679C-208.155 262.664 -190.601 271.236 -171.792 272.614C-152.984 273.991 -134.368 268.068 -119.814 256.076L40.5687 373.751C35.436 386.604 34.046 400.647 36.5595 414.257C39.073 427.867 45.3873 440.487 54.7723 450.659C64.1573 460.831 76.2297 468.139 89.5936 471.737C102.958 475.336 117.067 475.079 130.291 470.995C143.515 466.912 155.313 459.168 164.32 448.661C173.328 438.154 179.178 425.312 181.194 411.619C183.209 397.927 181.308 383.943 175.71 371.286C170.112 358.629 161.046 347.815 149.56 340.094L212.315 162.321C214.423 162.505 216.531 162.596 218.639 162.596C233.137 162.594 247.308 158.294 259.363 150.239C271.417 142.184 280.813 130.736 286.362 117.342C291.911 103.948 293.365 89.2099 290.54 74.99C287.714 60.7702 280.736 47.7072 270.488 37.4523H270.58ZM-8.94357 8.37724C-3.81512 3.25449 2.7169 -0.232868 9.8269 -1.64405C16.9369 -3.05523 24.3057 -2.32689 31.0018 0.448933C37.698 3.22475 43.4209 7.92342 47.4472 13.951C51.4735 19.9787 53.6225 27.0647 53.6225 34.3133C53.6225 41.562 51.4735 48.648 47.4472 54.6756C43.4209 60.7033 37.698 65.4019 31.0018 68.1778C24.3057 70.9536 16.9369 71.6819 9.8269 70.2707C2.7169 68.8596 -3.81512 65.3722 -8.94357 60.2495C-12.346 56.8388 -15.0428 52.791 -16.8797 48.3374C-18.7167 43.8839 -19.6578 39.1119 -19.6493 34.2943C-19.6408 29.4768 -18.6828 24.7082 -16.8301 20.2611C-14.9774 15.8141 -12.2664 11.7758 -8.85193 8.37724H-8.94357ZM-192.238 225.237C-195.646 221.832 -198.35 217.789 -200.195 213.339C-202.04 208.889 -202.989 204.118 -202.989 199.301C-202.989 194.483 -202.04 189.713 -200.195 185.263C-198.35 180.812 -195.646 176.769 -192.238 173.365C-187.109 168.242 -180.577 164.755 -173.467 163.343C-166.357 161.932 -158.988 162.661 -152.292 165.436C-145.596 168.212 -139.873 172.911 -135.847 178.939C-131.82 184.966 -129.672 192.052 -129.672 199.301C-129.672 206.55 -131.82 213.636 -135.847 219.663C-139.873 225.691 -145.596 230.389 -152.292 233.165C-158.988 235.941 -166.357 236.669 -173.467 235.258C-180.577 233.847 -187.109 230.36 -192.238 225.237ZM134.599 426.86C127.723 433.736 118.398 437.599 108.674 437.599C98.9503 437.599 89.6249 433.736 82.7492 426.86C75.8736 419.985 72.0109 410.659 72.0109 400.936C72.0109 391.212 75.8736 381.887 82.7492 375.011C86.1537 371.607 90.1954 368.906 94.6436 367.064C99.0917 365.221 103.859 364.273 108.674 364.273C113.489 364.273 118.256 365.221 122.704 367.064C127.152 368.906 131.194 371.607 134.599 375.011C138.003 378.416 140.704 382.457 142.546 386.905C144.389 391.354 145.337 396.121 145.337 400.936C145.337 405.75 144.389 410.518 142.546 414.966C140.704 419.414 138.003 423.456 134.599 426.86ZM115.009 327.927C96.0018 326.272 77.0979 332.091 62.312 344.149L-98.0703 226.474C-94.1836 216.669 -92.4464 206.145 -92.976 195.611C-93.5057 185.077 -96.2899 174.78 -101.14 165.414L-23.3551 95.419C-14.9868 100.965 -5.56853 104.734 4.31595 106.491C14.2004 108.249 24.3405 107.957 34.1078 105.635C43.875 103.313 53.0613 99.0101 61.0973 92.9923C69.1333 86.9745 75.8478 79.3705 80.8246 70.6514L145.39 88.3163C145.215 100.504 148.082 112.543 153.73 123.345C159.379 134.146 167.632 143.369 177.741 150.178L115.009 327.927ZM244.598 115.215C241.246 118.837 237.197 121.745 232.695 123.765C228.192 125.785 223.327 126.875 218.393 126.97C213.459 127.065 208.556 126.162 203.979 124.316C199.402 122.47 195.245 119.719 191.757 116.228C188.269 112.737 185.522 108.577 183.68 103.999C181.838 99.4201 180.94 94.5167 181.039 89.5826C181.138 84.6484 182.232 79.785 184.256 75.284C186.28 70.7829 189.192 66.7369 192.817 63.3884C199.693 56.5127 209.018 52.65 218.742 52.65C228.466 52.65 237.791 56.5127 244.667 63.3884C251.542 70.264 255.405 79.5894 255.405 89.313C255.405 99.0366 251.542 108.362 244.667 115.238L244.598 115.215Z" fill="#CFDBF3"/>
</svg>
