<?xml version="1.0" encoding="UTF-8"?>
<!DOCTYPE svg PUBLIC "-//W3C//DTD SVG 1.1//EN" "http://www.w3.org/Graphics/SVG/1.1/DTD/svg11.dtd">
<svg xmlns="http://www.w3.org/2000/svg" version="1.1" width="201px" height="159px" style="shape-rendering:geometricPrecision; text-rendering:geometricPrecision; image-rendering:optimizeQuality; fill-rule:evenodd; clip-rule:evenodd" xmlns:xlink="http://www.w3.org/1999/xlink">
<g><path style="opacity:0.943" fill="#bf99e4" d="M 19.5,-0.5 C 74.1667,-0.5 128.833,-0.5 183.5,-0.5C 190.257,1.91813 195.923,5.91813 200.5,11.5C 200.5,24.8333 200.5,38.1667 200.5,51.5C 188.829,51.3335 177.162,51.5001 165.5,52C 164.333,53.1667 163.167,54.3333 162,55.5C 161.5,89.8317 161.333,124.165 161.5,158.5C 155.5,158.5 149.5,158.5 143.5,158.5C 143.5,156.5 143.5,154.5 143.5,152.5C 102.165,152.667 60.832,152.5 19.5,152C 8.99449,149.327 2.32782,142.827 -0.5,132.5C -0.5,95.1667 -0.5,57.8333 -0.5,20.5C 1.08809,15.9904 3.25475,11.657 6,7.5C 10.189,4.10896 14.689,1.44229 19.5,-0.5 Z M 22.5,17.5 C 75.501,17.3333 128.501,17.5 181.5,18C 182.667,19.1667 183.833,20.3333 185,21.5C 185.499,25.4862 185.666,29.4862 185.5,33.5C 176.75,33.0901 168.084,33.5901 159.5,35C 151.402,38.6861 146.236,44.8528 144,53.5C 143.5,80.4979 143.333,107.498 143.5,134.5C 102.832,134.667 62.1653,134.5 21.5,134C 19.9512,132.786 18.7845,131.286 18,129.5C 17.3333,93.8333 17.3333,58.1667 18,22.5C 19.025,20.313 20.525,18.6464 22.5,17.5 Z"/></g>
<g><path style="opacity:0.966" fill="#bf99e4" d="M 200.5,67.5 C 200.5,73.1667 200.5,78.8333 200.5,84.5C 194.491,84.6662 188.491,84.4995 182.5,84C 177.391,80.6338 176.224,76.1338 179,70.5C 179.903,69.2986 181.069,68.4652 182.5,68C 188.491,67.5005 194.491,67.3338 200.5,67.5 Z"/></g>
</svg>
